P2
# GenTextur
16 7
256
254 245 185 35 186 166 59
28 141 43 235 146 221 107
227 195 60 185 250 188 212
168 70 203 8 32 224 56
88 177 231 48 133 40 200
2 246 96 188 142 91 91
146 249 144 145 174 166 196
136 82 98 218 165 28 223
15 66 208 100 222 1 88
194 33 95 9 138 120 140
40 125 238 122 173 68 218
51 70 98 4 113 159 102
9 104 225 101 1 231 121
167 94 159 26 161 23 194
5 35 7 209 136 211 144
175 196 218 131 249 180 221